<svg xmlns="http://www.w3.org/2000/svg" version="1.1" xmlns:xlink="http://www.w3.org/1999/xlink" xmlns:svgjs="http://svgjs.com/svgjs" width="100%" height="100%" viewBox="0 0 1000 600"><rect width="1000" height="600" x="0" y="0" fill="#f2f5e2"/><g><rect width="333.3333333333333" height="333.3333333333333" rx="13.333333333333334" ry="13.333333333333334" y="77.77777014838344" fill="#cb6c56" transform="matrix(2.2499999313354513,0,0,2.2499999313354517,0,-249.99999084472722)" x="55.55555725097656"/><path d="M188.4736777957932 175.04274799583033L188.4736777957932 175.04274799583033Q191.5902611245092 170.05044321927602 198.0254285532469 170.05044321927602L198.0254285532469 170.05044321927602Q200.50715231500226 170.05044321927602 202.58487453414625 171.3201623531973L202.58487453414625 171.3201623531973Q204.05659443937327 193.94424873943208 204.05659443937327 215.99119006479359Q204.05659443937327 238.00927413711136 203.10430508893228 271.85883195733254Q202.18087299153495 305.73724703059736 201.97887222022928 315.7218565837061L201.97887222022928 315.7218565837061Q196.98656744367491 319.04044068372787 193.8699841149589 319.04044068372787Q190.75340078624288 319.04044068372787 189.0796801097102 318.40558111676717L189.0796801097102 318.40558111676717Q187.83881822883254 307.4109677071301 187.83881822883254 295.983495501838L187.83881822883254 295.983495501838L189.0796801097102 248.59988600413706Q171.21704047568045 246.92616532760442 149.19895640336264 246.92616532760442Q127.18087233104484 246.92616532760442 103.2870668108887 251.31246779024175L103.2870668108887 251.31246779024175Q101.61334613435602 292.43405337746697 101.61334613435602 311.97041368802945L101.61334613435602 311.97041368802945Q96.419040586496 316.12585812631744 93.18702824560532 316.12585812631744Q89.9838731577583 316.12585812631744 88.10815170991995 315.0869970167455L88.10815170991995 315.0869970167455Q87.47329214295928 304.90038669233104 87.47329214295928 286.4028874913406Q87.47329214295928 267.9342455433939 90.0704449168893 225.22551103876694Q92.6675976908193 182.5167765341401 92.89845571516864 175.8796083340967L92.89845571516864 175.8796083340967Q95.58218024822966 171.52216312450298 102.24820570131669 171.52216312450298L102.24820570131669 171.52216312450298Q104.32592792046071 171.52216312450298 106.17279211525539 172.35902346276936L106.17279211525539 172.35902346276936Q106.80765168221606 178.15933132454637 106.80765168221606 187.10507976808307Q106.80765168221606 196.02197095857613 105.56678980133839 214.43289840043556Q104.32592792046071 232.81496858925132 104.32592792046071 239.88499558494973L104.32592792046071 239.88499558494973Q129.4605953214945 235.7295511466617 150.84381982685164 235.7295511466617Q172.25590158525245 235.7295511466617 188.67567856709886 237.17241379884504L188.67567856709886 237.17241379884504Q189.28168088101586 229.49638448922965 189.28168088101586 214.51947015956657Q189.28168088101586 199.57141308294715 188.4736777957932 175.04274799583033ZM239.57987293612717 304.29438437841407L239.57987293612717 304.29438437841407L237.9061522595945 182.74763455848938Q237.9061522595945 169.444440905359 291.7249291860331 169.444440905359L291.7249291860331 169.444440905359Q317.06159735837264 169.444440905359 334.2028056663107 178.9961916628127Q351.3440139742488 188.54794242026642 351.3440139742488 206.41058205429616L351.3440139742488 206.41058205429616Q351.3440139742488 218.27091305524326 342.22512201245 228.86152492226896Q333.0773727976077 239.4521367892947 321.6499005923156 242.36671934670508L321.6499005923156 242.36671934670508Q335.99195535501804 246.72416455629875 346.4671382098692 255.03505343287478Q356.9711783177638 263.34594230945083 356.9711783177638 276.6491359625812Q356.9711783177638 289.9523296157116 345.5437061124718 300.1389399401261L345.5437061124718 300.1389399401261Q323.525622040154 319.4444422263391 277.8157332189857 319.4444422263391L277.8157332189857 319.4444422263391Q239.57987293612717 319.4444422263391 239.57987293612717 304.29438437841407ZM253.08506736056324 243.00157891366572L253.08506736056324 243.00157891366572Q265.95540221803867 238.00927413711136 281.5383188616188 238.00927413711136L281.5383188616188 238.00927413711136Q288.8103466286228 238.00927413711136 296.0823743956268 238.00927413711136L296.0823743956268 238.00927413711136Q307.1058450583076 238.00927413711136 322.7753334610186 228.1400935961773Q338.4736791167734 218.27091305524326 338.4736791167734 209.32516461170653L338.4736791167734 209.32516461170653Q338.4736791167734 196.02197095857613 321.8519013636213 188.23051263678607Q305.23012361046915 180.43905431499604 285.0877609859898 180.43905431499604Q264.9165411084666 180.43905431499604 252.45020779360257 185.02735754893908L252.45020779360257 185.02735754893908Q252.45020779360257 188.7499431915721 252.45020779360257 195.93539919944513Q252.45020779360257 203.0919979542745 252.76763757708292 219.6272039482956Q253.08506736056324 236.13355268927305 253.08506736056324 243.00157891366572ZM341.79226321679505 276.6491359625812L341.79226321679505 276.6491359625812Q341.79226321679505 258.58449555724576 302.74839984871386 250.27360668066976L302.74839984871386 250.27360668066976Q282.7791807424964 256.0739145424468 264.9165411084666 256.0739145424468L264.9165411084666 256.0739145424468Q259.1162332466896 256.0739145424468 253.48906890317457 255.4679122285298L253.48906890317457 255.4679122285298Q254.12392847013524 280.1697208339086 254.12392847013524 305.73724703059736L254.12392847013524 305.73724703059736Q266.1574029893443 308.44982881670205 278.5371645450774 308.44982881670205Q290.8880688477668 308.44982881670205 300.5552486173952 306.8915371523441Q310.22242838702357 305.3332454879861 319.88960815665195 301.9858041349207Q329.5279306732367 298.66722003489906 335.67452557153774 292.0300518348557Q341.79226321679505 285.36402638176867 341.79226321679505 276.6491359625812Z " fill="#f2f5e2" transform="matrix(2.2499999313354513,0,0,2.2499999313354517,0,-249.99999084472722)"/><path d="MNaN 244.44444105360233 " fill="#cb6c56" transform="matrix(2.2499999313354513,0,0,2.2499999313354517,0,-249.99999084472722)"/></g></svg>